<?xml version="1.0" encoding="utf-8"?>
<svg viewBox="0.469 0.006 1461.95 1149.136" xmlns="http://www.w3.org/2000/svg" xmlns:bx="https://boxy-svg.com" width="1461.95px" height="1149.136px">
  <defs>
    <bx:export>
      <bx:file format="svg"/>
    </bx:export>
  </defs>
  <g data-cell-id="7ENvHP5MOEKU2dYHxV-M-96" id="object-0" transform="matrix(0, 0.235603, -0.235603, 0, -2085.750977, -1189.176758)" style="transform-origin: 2749.82px 1750px;">
    <g data-cell-id="A8OI-hcZhXyOVJZUAxWC-3">
      <g>
        <rect x="4984.62" y="1325" width="200" height="10" fill="#000000" transform="rotate(90,5084.62,1330)" pointer-events="all" style="fill: light-dark(rgb(0, 0, 0), rgb(255, 255, 255)); stroke: rgb(0, 0, 0);"/>
      </g>
    </g>
    <g data-cell-id="A8OI-hcZhXyOVJZUAxWC-4">
      <g>
        <rect x="4984.62" y="2165" width="200" height="10" fill="#000000" transform="rotate(90,5084.62,2170)" pointer-events="all" style="fill: light-dark(rgb(0, 0, 0), rgb(255, 255, 255)); stroke: rgb(0, 0, 0);"/>
      </g>
    </g>
    <g data-cell-id="A8OI-hcZhXyOVJZUAxWC-5">
      <g>
        <rect x="4369.62" y="1230" width="720" height="10" fill="#000000" pointer-events="all" style="fill: light-dark(rgb(0, 0, 0), rgb(255, 255, 255)); stroke: rgb(0, 0, 0);"/>
      </g>
    </g>
    <g data-cell-id="7ENvHP5MOEKU2dYHxV-M-1">
      <g>
        <rect x="4369.62" y="2260" width="720" height="10" fill="#000000" pointer-events="all" style="fill: light-dark(rgb(0, 0, 0), rgb(255, 255, 255)); stroke: rgb(0, 0, 0);"/>
      </g>
    </g>
    <g data-cell-id="7ENvHP5MOEKU2dYHxV-M-2">
      <g>
        <rect x="4254.62" y="1115" width="240" height="10" fill="#000000" transform="rotate(90,4374.62,1120)" pointer-events="all" style="fill: light-dark(rgb(0, 0, 0), rgb(255, 255, 255)); stroke: rgb(0, 0, 0);"/>
      </g>
    </g>
    <g data-cell-id="7ENvHP5MOEKU2dYHxV-M-3">
      <g>
        <rect x="4254.62" y="2375" width="240" height="10" fill="#000000" transform="rotate(90,4374.62,2380)" pointer-events="all" style="fill: light-dark(rgb(0, 0, 0), rgb(255, 255, 255)); stroke: rgb(0, 0, 0);"/>
      </g>
    </g>
    <g data-cell-id="7ENvHP5MOEKU2dYHxV-M-6">
      <g>
        <rect x="3924.62" y="2255" width="480" height="10" fill="#000000" transform="rotate(90,4164.62,2260)" pointer-events="all" style="fill: light-dark(rgb(0, 0, 0), rgb(255, 255, 255)); stroke: rgb(0, 0, 0);"/>
      </g>
    </g>
    <g data-cell-id="7ENvHP5MOEKU2dYHxV-M-7">
      <g>
        <rect x="3924.62" y="1235" width="480" height="10" fill="#000000" transform="rotate(90,4164.62,1240)" pointer-events="all" style="fill: light-dark(rgb(0, 0, 0), rgb(255, 255, 255)); stroke: rgb(0, 0, 0);"/>
      </g>
    </g>
    <g data-cell-id="7ENvHP5MOEKU2dYHxV-M-8">
      <g>
        <rect x="3139.62" y="1470" width="1020" height="10" fill="#000000" pointer-events="all" style="fill: light-dark(rgb(0, 0, 0), rgb(255, 255, 255)); stroke: rgb(0, 0, 0);"/>
      </g>
    </g>
    <g data-cell-id="7ENvHP5MOEKU2dYHxV-M-9">
      <g>
        <rect x="3139.62" y="2020" width="1020" height="10" fill="#000000" pointer-events="all" style="fill: light-dark(rgb(0, 0, 0), rgb(255, 255, 255)); stroke: rgb(0, 0, 0);"/>
      </g>
    </g>
    <g data-cell-id="7ENvHP5MOEKU2dYHxV-M-10">
      <g>
        <rect x="3009.62" y="1350" width="250" height="10" fill="#000000" transform="rotate(90,3134.62,1355)" pointer-events="all" style="fill: light-dark(rgb(0, 0, 0), rgb(255, 255, 255)); stroke: rgb(0, 0, 0);"/>
      </g>
    </g>
    <g data-cell-id="7ENvHP5MOEKU2dYHxV-M-11">
      <g>
        <rect x="3009.62" y="2140" width="250" height="10" fill="#000000" transform="rotate(90,3134.62,2145)" pointer-events="all" style="fill: light-dark(rgb(0, 0, 0), rgb(255, 255, 255)); stroke: rgb(0, 0, 0);"/>
      </g>
    </g>
    <g data-cell-id="7ENvHP5MOEKU2dYHxV-M-12">
      <g>
        <rect x="2769.62" y="1230" width="360" height="10" fill="#000000" pointer-events="all" style="fill: light-dark(rgb(0, 0, 0), rgb(255, 255, 255)); stroke: rgb(0, 0, 0);"/>
      </g>
    </g>
    <g data-cell-id="7ENvHP5MOEKU2dYHxV-M-15">
      <g>
        <rect x="2469.62" y="940" width="590" height="10" fill="#000000" transform="rotate(90,2764.62,945)" pointer-events="all" style="fill: light-dark(rgb(0, 0, 0), rgb(255, 255, 255)); stroke: rgb(0, 0, 0);"/>
      </g>
    </g>
    <g data-cell-id="7ENvHP5MOEKU2dYHxV-M-19">
      <g>
        <rect x="1799.62" y="940" width="590" height="10" fill="#000000" transform="rotate(90,2094.62,945)" pointer-events="all" style="fill: light-dark(rgb(0, 0, 0), rgb(255, 255, 255)); stroke: rgb(0, 0, 0);"/>
      </g>
    </g>
    <g data-cell-id="7ENvHP5MOEKU2dYHxV-M-24">
      <g>
        <path d="M 2089.62 520 L 2089.62 460 L 2229.62 460 L 2229.62 470 L 2099.62 470 L 2099.62 520 Z" fill="#000000" stroke-miterlimit="10" pointer-events="all" style="fill: light-dark(rgb(0, 0, 0), rgb(255, 255, 255)); stroke: rgb(0, 0, 0);"/>
      </g>
    </g>
    <g data-cell-id="7ENvHP5MOEKU2dYHxV-M-23">
      <g>
        <path d="M 2669.62 560 L 2669.62 420 L 2729.62 420 L 2729.62 430 L 2679.62 430 L 2679.62 560 Z" fill="#000000" stroke-miterlimit="10" transform="rotate(90,2699.62,490)" pointer-events="all" style="fill: light-dark(rgb(0, 0, 0), rgb(255, 255, 255)); stroke: rgb(0, 0, 0);"/>
      </g>
    </g>
    <g data-cell-id="7ENvHP5MOEKU2dYHxV-M-25">
      <g>
        <rect x="2769.62" y="510" width="90" height="10" fill="#000000" pointer-events="all" style="fill: light-dark(rgb(0, 0, 0), rgb(255, 255, 255)); stroke: rgb(0, 0, 0);"/>
      </g>
    </g>
    <g data-cell-id="7ENvHP5MOEKU2dYHxV-M-26">
      <g>
        <rect x="2769.62" y="650" width="90" height="10" fill="#000000" pointer-events="all" style="fill: light-dark(rgb(0, 0, 0), rgb(255, 255, 255)); stroke: rgb(0, 0, 0);"/>
      </g>
    </g>
    <g data-cell-id="7ENvHP5MOEKU2dYHxV-M-27">
      <g>
        <rect x="1999.62" y="650" width="90" height="10" fill="#000000" pointer-events="all" style="fill: light-dark(rgb(0, 0, 0), rgb(255, 255, 255)); stroke: rgb(0, 0, 0);"/>
      </g>
    </g>
    <g data-cell-id="7ENvHP5MOEKU2dYHxV-M-28">
      <g>
        <rect x="1999.62" y="510" width="90" height="10" fill="#000000" pointer-events="all" style="fill: light-dark(rgb(0, 0, 0), rgb(255, 255, 255)); stroke: rgb(0, 0, 0);"/>
      </g>
    </g>
    <g data-cell-id="7ENvHP5MOEKU2dYHxV-M-29">
      <g>
        <rect x="2594.62" y="595" width="1020" height="10" fill="#000000" transform="rotate(90,3104.62,600)" pointer-events="all" style="fill: light-dark(rgb(0, 0, 0), rgb(255, 255, 255)); stroke: rgb(0, 0, 0);"/>
      </g>
    </g>
    <g data-cell-id="7ENvHP5MOEKU2dYHxV-M-30">
      <g>
        <rect x="2849.62" y="80" width="260" height="10" fill="#000000" pointer-events="all" style="fill: light-dark(rgb(0, 0, 0), rgb(255, 255, 255)); stroke: rgb(0, 0, 0);"/>
      </g>
    </g>
    <g data-cell-id="7ENvHP5MOEKU2dYHxV-M-31">
      <g>
        <rect x="2644.62" y="295" width="420" height="10" fill="#000000" transform="rotate(90,2854.62,300)" pointer-events="all" style="fill: light-dark(rgb(0, 0, 0), rgb(255, 255, 255)); stroke: rgb(0, 0, 0);"/>
      </g>
    </g>
    <g data-cell-id="7ENvHP5MOEKU2dYHxV-M-32">
      <g>
        <rect x="2849.62" y="1110" width="260" height="10" fill="#000000" pointer-events="all" style="fill: light-dark(rgb(0, 0, 0), rgb(255, 255, 255)); stroke: rgb(0, 0, 0);"/>
      </g>
    </g>
    <g data-cell-id="7ENvHP5MOEKU2dYHxV-M-33">
      <g>
        <rect x="2629.62" y="880" width="450" height="10" fill="#000000" transform="rotate(90,2854.62,885)" pointer-events="all" style="fill: light-dark(rgb(0, 0, 0), rgb(255, 255, 255)); stroke: rgb(0, 0, 0);"/>
      </g>
    </g>
    <g data-cell-id="7ENvHP5MOEKU2dYHxV-M-36">
      <g>
        <rect x="1244.62" y="595" width="1020" height="10" fill="#000000" transform="translate(1754.62,0)scale(-1,1)translate(-1754.62,0)rotate(-90,1754.62,600)" pointer-events="all" style="fill: light-dark(rgb(0, 0, 0), rgb(255, 255, 255)); stroke: rgb(0, 0, 0);"/>
      </g>
    </g>
    <g data-cell-id="7ENvHP5MOEKU2dYHxV-M-37">
      <g>
        <rect x="1749.62" y="80" width="260" height="10" fill="#000000" transform="translate(0,85)scale(1,-1)translate(0,-85)" pointer-events="all" style="fill: light-dark(rgb(0, 0, 0), rgb(255, 255, 255)); stroke: rgb(0, 0, 0);"/>
      </g>
    </g>
    <g data-cell-id="7ENvHP5MOEKU2dYHxV-M-38">
      <g>
        <rect x="1794.62" y="295" width="420" height="10" fill="#000000" transform="translate(2004.62,0)scale(-1,1)translate(-2004.62,0)rotate(-90,2004.62,300)" pointer-events="all" style="fill: light-dark(rgb(0, 0, 0), rgb(255, 255, 255)); stroke: rgb(0, 0, 0);"/>
      </g>
    </g>
    <g data-cell-id="7ENvHP5MOEKU2dYHxV-M-39">
      <g>
        <rect x="1749.62" y="1110" width="260" height="10" fill="#000000" transform="translate(0,1115)scale(1,-1)translate(0,-1115)" pointer-events="all" style="fill: light-dark(rgb(0, 0, 0), rgb(255, 255, 255)); stroke: rgb(0, 0, 0);"/>
      </g>
    </g>
    <g data-cell-id="7ENvHP5MOEKU2dYHxV-M-40">
      <g>
        <rect x="1779.62" y="880" width="450" height="10" fill="#000000" transform="translate(2004.62,0)scale(-1,1)translate(-2004.62,0)rotate(-90,2004.62,885)" pointer-events="all" style="fill: light-dark(rgb(0, 0, 0), rgb(255, 255, 255)); stroke: rgb(0, 0, 0);"/>
      </g>
    </g>
    <g data-cell-id="7ENvHP5MOEKU2dYHxV-M-41">
      <g>
        <rect x="1729.62" y="1230" width="360" height="10" fill="#000000" pointer-events="all" style="fill: light-dark(rgb(0, 0, 0), rgb(255, 255, 255)); stroke: rgb(0, 0, 0);"/>
      </g>
    </g>
    <g data-cell-id="7ENvHP5MOEKU2dYHxV-M-42">
      <g>
        <rect x="1599.62" y="1350" width="250" height="10" fill="#000000" transform="rotate(90,1724.62,1355)" pointer-events="all" style="fill: light-dark(rgb(0, 0, 0), rgb(255, 255, 255)); stroke: rgb(0, 0, 0);"/>
      </g>
    </g>
    <g data-cell-id="7ENvHP5MOEKU2dYHxV-M-43">
      <g>
        <rect x="1729.62" y="2260" width="360" height="10" fill="#000000" transform="rotate(-180,1909.62,2265)" pointer-events="all" style="fill: light-dark(rgb(0, 0, 0), rgb(255, 255, 255)); stroke: rgb(0, 0, 0);"/>
      </g>
    </g>
    <g data-cell-id="7ENvHP5MOEKU2dYHxV-M-44">
      <g>
        <rect x="1799.62" y="2550" width="590" height="10" fill="#000000" transform="rotate(-90,2094.62,2555)" pointer-events="all" style="fill: light-dark(rgb(0, 0, 0), rgb(255, 255, 255)); stroke: rgb(0, 0, 0);"/>
      </g>
    </g>
    <g data-cell-id="7ENvHP5MOEKU2dYHxV-M-45">
      <g>
        <rect x="2469.62" y="2550" width="590" height="10" fill="#000000" transform="rotate(-90,2764.62,2555)" pointer-events="all" style="fill: light-dark(rgb(0, 0, 0), rgb(255, 255, 255)); stroke: rgb(0, 0, 0);"/>
      </g>
    </g>
    <g data-cell-id="7ENvHP5MOEKU2dYHxV-M-46">
      <g>
        <path d="M 2629.62 3040 L 2629.62 2980 L 2769.62 2980 L 2769.62 2990 L 2639.62 2990 L 2639.62 3040 Z" fill="#000000" stroke-miterlimit="10" transform="rotate(-180,2699.62,3010)" pointer-events="all" style="fill: light-dark(rgb(0, 0, 0), rgb(255, 255, 255)); stroke: rgb(0, 0, 0);"/>
      </g>
    </g>
    <g data-cell-id="7ENvHP5MOEKU2dYHxV-M-47">
      <g>
        <path d="M 2129.62 3080 L 2129.62 2940 L 2189.62 2940 L 2189.62 2950 L 2139.62 2950 L 2139.62 3080 Z" fill="#000000" stroke-miterlimit="10" transform="rotate(-90,2159.62,3010)" pointer-events="all" style="fill: light-dark(rgb(0, 0, 0), rgb(255, 255, 255)); stroke: rgb(0, 0, 0);"/>
      </g>
    </g>
    <g data-cell-id="7ENvHP5MOEKU2dYHxV-M-48">
      <g>
        <rect x="1999.62" y="2980" width="90" height="10" fill="#000000" transform="rotate(-180,2044.62,2985)" pointer-events="all" style="fill: light-dark(rgb(0, 0, 0), rgb(255, 255, 255)); stroke: rgb(0, 0, 0);"/>
      </g>
    </g>
    <g data-cell-id="7ENvHP5MOEKU2dYHxV-M-49">
      <g>
        <rect x="1999.62" y="2840" width="90" height="10" fill="#000000" transform="rotate(-180,2044.62,2845)" pointer-events="all" style="fill: light-dark(rgb(0, 0, 0), rgb(255, 255, 255)); stroke: rgb(0, 0, 0);"/>
      </g>
    </g>
    <g data-cell-id="7ENvHP5MOEKU2dYHxV-M-50">
      <g>
        <rect x="2769.62" y="2840" width="90" height="10" fill="#000000" transform="rotate(-180,2814.62,2845)" pointer-events="all" style="fill: light-dark(rgb(0, 0, 0), rgb(255, 255, 255)); stroke: rgb(0, 0, 0);"/>
      </g>
    </g>
    <g data-cell-id="7ENvHP5MOEKU2dYHxV-M-51">
      <g>
        <rect x="2769.62" y="2980" width="90" height="10" fill="#000000" transform="rotate(-180,2814.62,2985)" pointer-events="all" style="fill: light-dark(rgb(0, 0, 0), rgb(255, 255, 255)); stroke: rgb(0, 0, 0);"/>
      </g>
    </g>
    <g data-cell-id="7ENvHP5MOEKU2dYHxV-M-52">
      <g>
        <rect x="1243.62" y="2895" width="1020" height="10" fill="#000000" transform="rotate(-90,1753.62,2900)" pointer-events="all" style="fill: light-dark(rgb(0, 0, 0), rgb(255, 255, 255)); stroke: rgb(0, 0, 0);"/>
      </g>
    </g>
    <g data-cell-id="7ENvHP5MOEKU2dYHxV-M-53">
      <g>
        <rect x="1749.62" y="3410" width="260" height="10" fill="#000000" transform="rotate(-180,1879.62,3415)" pointer-events="all" style="fill: light-dark(rgb(0, 0, 0), rgb(255, 255, 255)); stroke: rgb(0, 0, 0);"/>
      </g>
    </g>
    <g data-cell-id="7ENvHP5MOEKU2dYHxV-M-54">
      <g>
        <rect x="1794.62" y="3195" width="420" height="10" fill="#000000" transform="rotate(-90,2004.62,3200)" pointer-events="all" style="fill: light-dark(rgb(0, 0, 0), rgb(255, 255, 255)); stroke: rgb(0, 0, 0);"/>
      </g>
    </g>
    <g data-cell-id="7ENvHP5MOEKU2dYHxV-M-55">
      <g>
        <rect x="1749.62" y="2380" width="260" height="10" fill="#000000" transform="rotate(-180,1879.62,2385)" pointer-events="all" style="fill: light-dark(rgb(0, 0, 0), rgb(255, 255, 255)); stroke: rgb(0, 0, 0);"/>
      </g>
    </g>
    <g data-cell-id="7ENvHP5MOEKU2dYHxV-M-56">
      <g>
        <rect x="1779.62" y="2611" width="450" height="10" fill="#000000" transform="rotate(-90,2004.62,2616)" pointer-events="all" style="fill: light-dark(rgb(0, 0, 0), rgb(255, 255, 255)); stroke: rgb(0, 0, 0);"/>
      </g>
    </g>
    <g data-cell-id="7ENvHP5MOEKU2dYHxV-M-58">
      <g>
        <rect x="2594.62" y="2894" width="1020" height="10" fill="#000000" transform="translate(3104.62,0)scale(-1,1)translate(-3104.62,0)rotate(90,3104.62,2899)" pointer-events="all" style="fill: light-dark(rgb(0, 0, 0), rgb(255, 255, 255)); stroke: rgb(0, 0, 0);"/>
      </g>
    </g>
    <g data-cell-id="7ENvHP5MOEKU2dYHxV-M-59">
      <g>
        <rect x="2849.62" y="3410" width="260" height="10" fill="#000000" transform="translate(0,3415)scale(1,-1)translate(0,-3415)rotate(180,2979.62,3415)" pointer-events="all" style="fill: light-dark(rgb(0, 0, 0), rgb(255, 255, 255)); stroke: rgb(0, 0, 0);"/>
      </g>
    </g>
    <g data-cell-id="7ENvHP5MOEKU2dYHxV-M-60">
      <g>
        <rect x="2644.62" y="3195" width="420" height="10" fill="#000000" transform="translate(2854.62,0)scale(-1,1)translate(-2854.62,0)rotate(90,2854.62,3200)" pointer-events="all" style="fill: light-dark(rgb(0, 0, 0), rgb(255, 255, 255)); stroke: rgb(0, 0, 0);"/>
      </g>
    </g>
    <g data-cell-id="7ENvHP5MOEKU2dYHxV-M-61">
      <g>
        <rect x="2849.62" y="2380" width="260" height="10" fill="#000000" transform="translate(0,2385)scale(1,-1)translate(0,-2385)rotate(180,2979.62,2385)" pointer-events="all" style="fill: light-dark(rgb(0, 0, 0), rgb(255, 255, 255)); stroke: rgb(0, 0, 0);"/>
      </g>
    </g>
    <g data-cell-id="7ENvHP5MOEKU2dYHxV-M-62">
      <g>
        <rect x="2630.62" y="2610" width="450" height="10" fill="#000000" transform="translate(2855.62,0)scale(-1,1)translate(-2855.62,0)rotate(90,2855.62,2615)" pointer-events="all" style="fill: light-dark(rgb(0, 0, 0), rgb(255, 255, 255)); stroke: rgb(0, 0, 0);"/>
      </g>
    </g>
    <g data-cell-id="7ENvHP5MOEKU2dYHxV-M-63" transform="matrix(1, 0, 0, 1, -1, 0)">
      <g>
        <rect x="2769.62" y="2260" width="360" height="10" fill="#000000" transform="rotate(-180,2949.62,2265)" pointer-events="all" style="fill: light-dark(rgb(0, 0, 0), rgb(255, 255, 255)); stroke: rgb(0, 0, 0);"/>
      </g>
    </g>
    <g data-cell-id="7ENvHP5MOEKU2dYHxV-M-66">
      <g>
        <rect x="1599.62" y="2140" width="250" height="10" fill="#000000" transform="rotate(90,1724.62,2145)" pointer-events="all" style="fill: light-dark(rgb(0, 0, 0), rgb(255, 255, 255)); stroke: rgb(0, 0, 0);"/>
      </g>
    </g>
    <g data-cell-id="7ENvHP5MOEKU2dYHxV-M-67">
      <g>
        <rect x="699.62" y="2020" width="1020" height="10" fill="#000000" pointer-events="all" style="fill: light-dark(rgb(0, 0, 0), rgb(255, 255, 255)); stroke: rgb(0, 0, 0);"/>
      </g>
    </g>
    <g data-cell-id="7ENvHP5MOEKU2dYHxV-M-68">
      <g>
        <rect x="699.62" y="1470" width="1020" height="10" fill="#000000" pointer-events="all" style="fill: light-dark(rgb(0, 0, 0), rgb(255, 255, 255)); stroke: rgb(0, 0, 0);"/>
      </g>
    </g>
    <g data-cell-id="7ENvHP5MOEKU2dYHxV-M-69">
      <g>
        <rect x="414.62" y="1265" width="140" height="10" fill="#000000" transform="rotate(90,484.62,1270)" pointer-events="all" style="fill: light-dark(rgb(0, 0, 0), rgb(255, 255, 255)); stroke: rgb(0, 0, 0);"/>
      </g>
    </g>
    <g data-cell-id="7ENvHP5MOEKU2dYHxV-M-70">
      <g>
        <rect x="554.62" y="1335" width="280" height="10" fill="#000000" transform="rotate(90,694.62,1340)" pointer-events="all" style="fill: light-dark(rgb(0, 0, 0), rgb(255, 255, 255)); stroke: rgb(0, 0, 0);"/>
      </g>
    </g>
    <g data-cell-id="7ENvHP5MOEKU2dYHxV-M-71">
      <g>
        <rect x="464.62" y="1455" width="40" height="10" fill="#000000" transform="rotate(90,484.62,1460)" pointer-events="all" style="fill: light-dark(rgb(0, 0, 0), rgb(255, 255, 255)); stroke: rgb(0, 0, 0);"/>
      </g>
    </g>
    <g data-cell-id="7ENvHP5MOEKU2dYHxV-M-72">
      <g>
        <rect x="414.62" y="2085" width="140" height="10" fill="#000000" transform="rotate(90,484.62,2090)" pointer-events="all" style="fill: light-dark(rgb(0, 0, 0), rgb(255, 255, 255)); stroke: rgb(0, 0, 0);"/>
      </g>
    </g>
    <g data-cell-id="7ENvHP5MOEKU2dYHxV-M-73">
      <g>
        <rect x="554.62" y="2155" width="280" height="10" fill="#000000" transform="rotate(90,694.62,2160)" pointer-events="all" style="fill: light-dark(rgb(0, 0, 0), rgb(255, 255, 255)); stroke: rgb(0, 0, 0);"/>
      </g>
    </g>
    <g data-cell-id="7ENvHP5MOEKU2dYHxV-M-74">
      <g>
        <rect x="464.62" y="2275" width="40" height="10" fill="#000000" transform="rotate(90,484.62,2280)" pointer-events="all" style="fill: light-dark(rgb(0, 0, 0), rgb(255, 255, 255)); stroke: rgb(0, 0, 0);"/>
      </g>
    </g>
    <g data-cell-id="7ENvHP5MOEKU2dYHxV-M-75">
      <g>
        <rect x="395.5" y="1340" width="94.12" height="5" fill="#09555b" pointer-events="all" style="fill: light-dark(rgb(9, 85, 91), rgb(126, 191, 196)); stroke: rgb(0, 0, 0);"/>
        <path d="M 395.5 1345 C 395.5 1396.98 437.64 1439.12 489.62 1439.12 L 489.62 1345" fill="none" stroke-miterlimit="10" pointer-events="all" style="stroke: rgb(0, 0, 0);"/>
      </g>
    </g>
    <g data-cell-id="7ENvHP5MOEKU2dYHxV-M-76">
      <g>
        <rect x="395.5" y="2160" width="94.12" height="5" fill="#09555b" transform="translate(0,2210)scale(1,-1)translate(0,-2210)" pointer-events="all" style="fill: light-dark(rgb(9, 85, 91), rgb(126, 191, 196)); stroke: rgb(0, 0, 0);"/>
        <path d="M 395.5 2165 C 395.5 2216.98 437.64 2259.12 489.62 2259.12 L 489.62 2165" fill="none" stroke-miterlimit="10" transform="translate(0,2210)scale(1,-1)translate(0,-2210)" pointer-events="all" style="stroke: rgb(0, 0, 0);"/>
      </g>
    </g>
    <g data-cell-id="7ENvHP5MOEKU2dYHxV-M-77">
      <g>
        <rect x="489.62" y="2295" width="200" height="5" fill="#09555b" pointer-events="all" style="fill: light-dark(rgb(9, 85, 91), rgb(126, 191, 196)); stroke: rgb(0, 0, 0);"/>
        <path d="M 589.62 2295 L 589.62 2300 M 589.62 2300 C 589.62 2355.23 544.85 2400 489.62 2400 L 489.62 2300 M 589.62 2300 C 589.62 2355.23 634.39 2400 689.62 2400 L 689.62 2300" fill="none" stroke-miterlimit="10" pointer-events="all" style="stroke: rgb(0, 0, 0);"/>
      </g>
    </g>
    <g data-cell-id="7ENvHP5MOEKU2dYHxV-M-78">
      <g>
        <rect x="489.62" y="1100" width="200" height="5" fill="#09555b" transform="translate(0,1153.1)scale(1,-1)translate(0,-1153.1)" pointer-events="all" style="fill: light-dark(rgb(9, 85, 91), rgb(126, 191, 196)); stroke: rgb(0, 0, 0);"/>
        <path d="M 589.62 1100 L 589.62 1105 M 589.62 1105 C 589.62 1160.23 544.85 1205 489.62 1205 L 489.62 1105 M 589.62 1105 C 589.62 1160.23 634.39 1205 689.62 1205 L 689.62 1105" fill="none" stroke-miterlimit="10" transform="translate(0,1153.1)scale(1,-1)translate(0,-1153.1)" pointer-events="all" style="stroke: rgb(0, 0, 0);"/>
      </g>
    </g>
    <g data-cell-id="7ENvHP5MOEKU2dYHxV-M-79">
      <g>
        <rect x="2229.62" y="3030" width="5" height="10" fill="#09555b" stroke-width="2" pointer-events="all" style="fill: light-dark(rgb(9, 85, 91), rgb(126, 191, 196)); stroke: rgb(0, 0, 0);"/>
        <rect x="2624.62" y="3030" width="5" height="10" fill="#09555b" stroke-width="2" pointer-events="all" style="fill: light-dark(rgb(9, 85, 91), rgb(126, 191, 196)); stroke: rgb(0, 0, 0);"/>
        <rect x="2229.62" y="3035" width="200" height="2" fill="#09555b" stroke-width="2" pointer-events="all" style="fill: light-dark(rgb(9, 85, 91), rgb(126, 191, 196)); stroke: rgb(0, 0, 0);"/>
        <rect x="2329.62" y="3033" width="200" height="2" fill="#09555b" stroke-width="2" pointer-events="all" style="fill: light-dark(rgb(9, 85, 91), rgb(126, 191, 196)); stroke: rgb(0, 0, 0);"/>
      </g>
    </g>
    <g data-cell-id="7ENvHP5MOEKU2dYHxV-M-80">
      <g>
        <rect x="2229.62" y="460" width="5" height="10" fill="#09555b" stroke-width="2" transform="translate(2429.62,0)scale(-1,1)translate(-2429.62,0)" pointer-events="all" style="fill: light-dark(rgb(9, 85, 91), rgb(126, 191, 196)); stroke: rgb(0, 0, 0);"/>
        <rect x="2624.62" y="460" width="5" height="10" fill="#09555b" stroke-width="2" transform="translate(2429.62,0)scale(-1,1)translate(-2429.62,0)" pointer-events="all" style="fill: light-dark(rgb(9, 85, 91), rgb(126, 191, 196)); stroke: rgb(0, 0, 0);"/>
        <rect x="2229.62" y="465" width="200" height="2" fill="#09555b" stroke-width="2" transform="translate(2429.62,0)scale(-1,1)translate(-2429.62,0)" pointer-events="all" style="fill: light-dark(rgb(9, 85, 91), rgb(126, 191, 196)); stroke: rgb(0, 0, 0);"/>
        <rect x="2329.62" y="463" width="200" height="2" fill="#09555b" stroke-width="2" transform="translate(2429.62,0)scale(-1,1)translate(-2429.62,0)" pointer-events="all" style="fill: light-dark(rgb(9, 85, 91), rgb(126, 191, 196)); stroke: rgb(0, 0, 0);"/>
      </g>
    </g>
    <g data-cell-id="7ENvHP5MOEKU2dYHxV-M-81">
      <g>
        <rect x="4169.62" y="900" width="200" height="5" fill="#09555b" transform="translate(0,953.13)scale(1,-1)translate(0,-953.13)" pointer-events="all" style="fill: light-dark(rgb(9, 85, 91), rgb(126, 191, 196)); stroke: rgb(0, 0, 0);"/>
        <path d="M 4269.62 900 L 4269.62 905 M 4269.62 905 C 4269.62 960.23 4224.85 1005 4169.62 1005 L 4169.62 905 M 4269.62 905 C 4269.62 960.23 4314.39 1005 4369.62 1005 L 4369.62 905" fill="none" stroke-miterlimit="10" transform="translate(0,953.13)scale(1,-1)translate(0,-953.13)" pointer-events="all" style="stroke: rgb(0, 0, 0);"/>
      </g>
    </g>
    <g data-cell-id="7ENvHP5MOEKU2dYHxV-M-82">
      <g>
        <rect x="4169.62" y="2494" width="200" height="5" fill="#09555b" pointer-events="all" style="fill: light-dark(rgb(9, 85, 91), rgb(126, 191, 196)); stroke: rgb(0, 0, 0);"/>
        <path d="M 4269.62 2494 L 4269.62 2499 M 4269.62 2499 C 4269.62 2554.23 4224.85 2599 4169.62 2599 L 4169.62 2499 M 4269.62 2499 C 4269.62 2554.23 4314.39 2599 4369.62 2599 L 4369.62 2499" fill="none" stroke-miterlimit="10" pointer-events="all" style="stroke: rgb(0, 0, 0);"/>
      </g>
    </g>
    <g data-cell-id="7ENvHP5MOEKU2dYHxV-M-83">
      <g>
        <rect x="4819.62" y="1620" width="50" height="10" fill="#000000" transform="rotate(90,4844.62,1625)" pointer-events="all" style="fill: light-dark(rgb(0, 0, 0), rgb(255, 255, 255)); stroke: rgb(0, 0, 0);"/>
      </g>
    </g>
    <g data-cell-id="7ENvHP5MOEKU2dYHxV-M-84">
      <g>
        <rect x="4819.62" y="1870" width="50" height="10" fill="#000000" transform="rotate(90,4844.62,1875)" pointer-events="all" style="fill: light-dark(rgb(0, 0, 0), rgb(255, 255, 255)); stroke: rgb(0, 0, 0);"/>
      </g>
    </g>
    <g data-cell-id="7ENvHP5MOEKU2dYHxV-M-85">
      <g>
        <rect x="4792.74" y="1696.88" width="200" height="5" fill="#09555b" transform="rotate(270,4892.74,1750)" pointer-events="all" style="fill: light-dark(rgb(9, 85, 91), rgb(126, 191, 196)); stroke: rgb(0, 0, 0);"/>
        <path d="M 4892.74 1696.88 L 4892.74 1701.88 M 4892.74 1701.88 C 4892.74 1757.1 4847.97 1801.88 4792.74 1801.88 L 4792.74 1701.88 M 4892.74 1701.88 C 4892.74 1757.1 4937.52 1801.88 4992.74 1801.88 L 4992.74 1701.88" fill="none" stroke-miterlimit="10" transform="rotate(270,4892.74,1750)" pointer-events="all" style="stroke: rgb(0, 0, 0);"/>
      </g>
    </g>
    <g data-cell-id="7ENvHP5MOEKU2dYHxV-M-90">
      <g>
        <rect x="4892.74" y="1501.88" width="200" height="5" fill="#09555b" transform="rotate(324,4992.74,1555)" pointer-events="all" style="fill: light-dark(rgb(9, 85, 91), rgb(126, 191, 196)); stroke: rgb(0, 0, 0);"/>
        <path d="M 4992.74 1501.88 L 4992.74 1506.88 M 4992.74 1506.88 C 4992.74 1562.1 4947.97 1606.88 4892.74 1606.88 L 4892.74 1506.88 M 4992.74 1506.88 C 4992.74 1562.1 5037.52 1606.88 5092.74 1606.88 L 5092.74 1506.88" fill="none" stroke-miterlimit="10" transform="rotate(324,4992.74,1555)" pointer-events="all" style="stroke: rgb(0, 0, 0);"/>
      </g>
    </g>
    <g data-cell-id="7ENvHP5MOEKU2dYHxV-M-91">
      <g>
        <rect x="4839.62" y="1905" width="50" height="10" fill="#000000" transform="rotate(36,4864.62,1910)" pointer-events="all" style="fill: light-dark(rgb(0, 0, 0), rgb(255, 255, 255)); stroke: rgb(0, 0, 0);"/>
      </g>
    </g>
    <g data-cell-id="7ENvHP5MOEKU2dYHxV-M-92">
      <g>
        <rect x="4839.62" y="1585" width="50" height="10" fill="#000000" transform="rotate(324,4864.62,1590)" pointer-events="all" style="fill: light-dark(rgb(0, 0, 0), rgb(255, 255, 255)); stroke: rgb(0, 0, 0);"/>
      </g>
    </g>
    <g data-cell-id="7ENvHP5MOEKU2dYHxV-M-93">
      <g>
        <rect x="5039.62" y="1435" width="50" height="10" fill="#000000" transform="rotate(324,5064.62,1440)" pointer-events="all" style="fill: light-dark(rgb(0, 0, 0), rgb(255, 255, 255)); stroke: rgb(0, 0, 0);"/>
      </g>
    </g>
    <g data-cell-id="7ENvHP5MOEKU2dYHxV-M-94">
      <g>
        <rect x="5039.62" y="2055" width="50" height="10" fill="#000000" transform="rotate(36,5064.62,2060)" pointer-events="all" style="fill: light-dark(rgb(0, 0, 0), rgb(255, 255, 255)); stroke: rgb(0, 0, 0);"/>
      </g>
    </g>
    <g data-cell-id="7ENvHP5MOEKU2dYHxV-M-95">
      <g>
        <rect x="4892.74" y="1891.88" width="200" height="5" fill="#09555b" transform="rotate(576,4992.74,1945)" pointer-events="all" style="fill: light-dark(rgb(9, 85, 91), rgb(126, 191, 196)); stroke: rgb(0, 0, 0);"/>
        <path d="M 4992.74 1891.88 L 4992.74 1896.88 M 4992.74 1896.88 C 4992.74 1952.1 4947.97 1996.88 4892.74 1996.88 L 4892.74 1896.88 M 4992.74 1896.88 C 4992.74 1952.1 5037.52 1996.88 5092.74 1996.88 L 5092.74 1896.88" fill="none" stroke-miterlimit="10" transform="rotate(576,4992.74,1945)" pointer-events="all" style="stroke: rgb(0, 0, 0);"/>
      </g>
    </g>
  </g>
  <text style="fill: rgb(51, 51, 51); font-family: Arial, sans-serif; font-size: 14px; white-space: pre; stroke-width: 1;" x="633.577" y="1102.87">Entrance 1</text>
  <text style="fill: rgb(51, 51, 51); font-family: Arial, sans-serif; font-size: 14px; white-space: pre; stroke-width: 1;" x="382.011" y="481.611">Entrance 2</text>
  <text style="fill: rgb(51, 51, 51); font-family: Arial, sans-serif; font-size: 14px; white-space: pre; stroke-width: 1;" x="871.53" y="480.808">Entrance 3</text>
  <g style="visibility: hidden;">
    <path d="M 784.202 405.374 H 967.972 V 563.464 H 784.202 V 405.374 Z" style="fill: rgb(216, 216, 216); stroke: rgb(0, 0, 0);"/>
    <path d="M 358.883 404.572 H 543.456 V 566.675 H 358.883 V 404.572 Z" style="fill: rgb(216, 216, 216); stroke: rgb(0, 0, 0);"/>
    <path style="fill: rgb(216, 216, 216); stroke: rgb(0, 0, 0);" d="M 584.383 1112.367 L 630.125 1052.181 L 699.941 1052.983 C 699.941 1052.983 740.065 1109.157 740.065 1110.762 C 740.065 1112.367 585.988 1110.762 584.383 1112.367 Z"/>
    <ellipse style="fill: rgb(216, 216, 216); stroke: rgb(0, 0, 0);" cx="723.149" cy="1048.81" rx="5.072" ry="5.072"/>
    <ellipse style="fill: rgb(216, 216, 216); stroke: rgb(0, 0, 0);" cx="723.149" cy="1048.81" rx="5.072" ry="5.072"/>
    <ellipse style="fill: rgb(216, 216, 216); stroke: rgb(0, 0, 0);" cx="723.149" cy="1058.81" rx="5.072" ry="5.072"/>
    <ellipse style="fill: rgb(216, 216, 216); stroke: rgb(0, 0, 0);" cx="723.149" cy="1068.81" rx="5.072" ry="5.072"/>
    <ellipse style="fill: rgb(216, 216, 216); stroke: rgb(0, 0, 0);" cx="723.149" cy="1078.81" rx="5.072" ry="5.072"/>
    <ellipse style="fill: rgb(216, 216, 216); stroke: rgb(0, 0, 0);" cx="723.149" cy="1088.81" rx="5.072" ry="5.072"/>
    <ellipse style="fill: rgb(216, 216, 216); stroke: rgb(0, 0, 0);" cx="723.149" cy="1098.81" rx="5.072" ry="5.072"/>
  </g>
  <text style="fill: rgb(51, 51, 51); font-family: Arial, sans-serif; font-size: 14px; white-space: pre; stroke-width: 1;" x="629.658" y="406.948">Main Hall</text>
</svg>